<svg width="1121" height="141" viewBox="0 0 1121 141" fill="none" xmlns="http://www.w3.org/2000/svg">
<g clip-path="url(#clip0_941_4811)">
<g opacity="0.07" clip-path="url(#clip1_941_4811)">
<rect opacity="0.5" width="39.1797" height="39.1797" rx="3.91797" transform="matrix(-1 0 0 1 321.273 0)" fill="#1C4FD8"/>
<rect opacity="0.5" width="39.1797" height="39.1797" rx="3.91797" transform="matrix(-1 0 0 1 227.242 0)" fill="#1C4FD8"/>
<rect opacity="0.5" width="39.1797" height="39.1797" rx="3.91797" transform="matrix(-1 0 0 1 180.227 0)" fill="#1C4FD8"/>
<rect opacity="0.5" width="39.1797" height="39.1797" rx="3.91797" transform="matrix(-1 0 0 1 133.211 0)" fill="#1C4FD8"/>
<rect opacity="0.2" width="39.1797" height="39.1797" rx="3.91797" transform="matrix(-1 0 0 1 39.1797 0)" fill="#1C4FD8"/>
<rect opacity="0.5" width="39.1797" height="39.1797" rx="3.91797" transform="matrix(-1 0 0 1 509.336 47.0156)" fill="#1C4FD8"/>
<rect opacity="0.5" width="39.1797" height="39.1797" rx="3.91797" transform="matrix(-1 0 0 1 415.305 47.0156)" fill="#1C4FD8"/>
<rect width="39.1797" height="39.1797" rx="3.91797" transform="matrix(-1 0 0 1 368.289 47.0156)" fill="#1C4FD8"/>
<rect opacity="0.2" width="39.1797" height="39.1797" rx="3.91797" transform="matrix(-1 0 0 1 321.273 47.0156)" fill="#1C4FD8"/>
<rect width="39.1797" height="39.1797" rx="3.91797" transform="matrix(-1 0 0 1 274.258 47.0156)" fill="#1C4FD8"/>
<rect opacity="0.2" width="39.1797" height="39.1797" rx="3.91797" transform="matrix(-1 0 0 1 227.242 47.0156)" fill="#1C4FD8"/>
<rect width="39.1797" height="39.1797" rx="3.91797" transform="matrix(-1 0 0 1 180.227 47.0156)" fill="#1C4FD8"/>
<rect opacity="0.5" width="39.1797" height="39.1797" rx="3.91797" transform="matrix(-1 0 0 1 133.211 47.0156)" fill="#1C4FD8"/>
<rect opacity="0.2" width="39.1797" height="39.1797" rx="3.91797" transform="matrix(-1 0 0 1 86.1953 47.0156)" fill="#1C4FD8"/>
<rect opacity="0.2" width="39.1797" height="39.1797" rx="3.91797" transform="matrix(-1 0 0 1 39.1797 47.0156)" fill="#1C4FD8"/>
<rect opacity="0.5" width="39.1797" height="39.1797" rx="3.91797" transform="matrix(-1 0 0 1 556.352 94.0312)" fill="#1C4FD8"/>
<rect width="39.1797" height="39.1797" rx="3.91797" transform="matrix(-1 0 0 1 462.32 94.0312)" fill="#1C4FD8"/>
<rect width="39.1797" height="39.1797" rx="3.91797" transform="matrix(-1 0 0 1 415.305 94.0312)" fill="#1C4FD8"/>
<rect opacity="0.2" width="39.1797" height="39.1797" rx="3.91797" transform="matrix(-1 0 0 1 368.289 94.0312)" fill="#1C4FD8"/>
<rect width="39.1797" height="39.1797" rx="3.91797" transform="matrix(-1 0 0 1 321.273 94.0312)" fill="#1C4FD8"/>
<rect width="39.1797" height="39.1797" rx="3.91797" transform="matrix(-1 0 0 1 274.258 94.0312)" fill="#1C4FD8"/>
<rect opacity="0.5" width="39.1797" height="39.1797" rx="3.91797" transform="matrix(-1 0 0 1 227.242 94.0312)" fill="#1C4FD8"/>
<rect width="39.1797" height="39.1797" rx="3.91797" transform="matrix(-1 0 0 1 180.227 94.0312)" fill="#1C4FD8"/>
<rect width="39.1797" height="39.1797" rx="3.91797" transform="matrix(-1 0 0 1 133.211 94.0312)" fill="#1C4FD8"/>
<rect width="39.1797" height="39.1797" rx="3.91797" transform="matrix(-1 0 0 1 86.1953 94.0312)" fill="#1C4FD8"/>
<rect opacity="0.2" width="39.1797" height="39.1797" rx="3.91797" transform="matrix(-1 0 0 1 39.1797 94.0312)" fill="#1C4FD8"/>
</g>
<g opacity="0.07" clip-path="url(#clip2_941_4811)">
<rect opacity="0.5" x="799.43" width="39.1797" height="39.1797" rx="3.91797" fill="#1C4FD8"/>
<rect x="846.445" width="39.1797" height="39.1797" rx="3.91797" fill="#1C4FD8"/>
<rect opacity="0.5" x="893.461" width="39.1797" height="39.1797" rx="3.91797" fill="#1C4FD8"/>
<rect opacity="0.5" x="940.477" width="39.1797" height="39.1797" rx="3.91797" fill="#1C4FD8"/>
<rect opacity="0.5" x="987.492" width="39.1797" height="39.1797" rx="3.91797" fill="#1C4FD8"/>
<rect opacity="0.2" x="1081.52" width="39.1797" height="39.1797" rx="3.91797" fill="#1C4FD8"/>
<rect opacity="0.5" x="611.367" y="47.0156" width="39.1797" height="39.1797" rx="3.91797" fill="#1C4FD8"/>
<rect opacity="0.5" x="705.398" y="47.0156" width="39.1797" height="39.1797" rx="3.91797" fill="#1C4FD8"/>
<rect x="752.414" y="47.0156" width="39.1797" height="39.1797" rx="3.91797" fill="#1C4FD8"/>
<rect opacity="0.2" x="799.43" y="47.0156" width="39.1797" height="39.1797" rx="3.91797" fill="#1C4FD8"/>
<rect x="846.445" y="47.0156" width="39.1797" height="39.1797" rx="3.91797" fill="#1C4FD8"/>
<rect opacity="0.2" x="893.461" y="47.0156" width="39.1797" height="39.1797" rx="3.91797" fill="#1C4FD8"/>
<rect x="940.477" y="47.0156" width="39.1797" height="39.1797" rx="3.91797" fill="#1C4FD8"/>
<rect opacity="0.5" x="987.492" y="47.0156" width="39.1797" height="39.1797" rx="3.91797" fill="#1C4FD8"/>
<rect x="1034.51" y="47.0156" width="39.1797" height="39.1797" rx="3.91797" fill="#1C4FD8"/>
<rect x="1081.52" y="47.0156" width="39.1797" height="39.1797" rx="3.91797" fill="#1C4FD8"/>
<rect opacity="0.5" x="564.352" y="94.0312" width="39.1797" height="39.1797" rx="3.91797" fill="#1C4FD8"/>
<rect x="658.383" y="94.0312" width="39.1797" height="39.1797" rx="3.91797" fill="#1C4FD8"/>
<rect x="705.398" y="94.0312" width="39.1797" height="39.1797" rx="3.91797" fill="#1C4FD8"/>
<rect opacity="0.2" x="752.414" y="94.0312" width="39.1797" height="39.1797" rx="3.91797" fill="#1C4FD8"/>
<rect opacity="0.2" x="799.43" y="94.0312" width="39.1797" height="39.1797" rx="3.91797" fill="#1C4FD8"/>
<rect x="846.445" y="94.0312" width="39.1797" height="39.1797" rx="3.91797" fill="#1C4FD8"/>
<rect opacity="0.5" x="893.461" y="94.0312" width="39.1797" height="39.1797" rx="3.91797" fill="#1C4FD8"/>
<rect x="940.477" y="94.0312" width="39.1797" height="39.1797" rx="3.91797" fill="#1C4FD8"/>
<rect x="987.492" y="94.0312" width="39.1797" height="39.1797" rx="3.91797" fill="#1C4FD8"/>
<rect x="1034.51" y="94.0312" width="39.1797" height="39.1797" rx="3.91797" fill="#1C4FD8"/>
<rect opacity="0.2" x="1081.52" y="94.0312" width="39.1797" height="39.1797" rx="3.91797" fill="#1C4FD8"/>
</g>
</g>
<defs>
<clipPath id="clip0_941_4811">
<rect width="1120.7" height="141" fill="white"/>
</clipPath>
<clipPath id="clip1_941_4811">
<rect width="556.351" height="188" fill="white" transform="matrix(-1 0 0 1 556.352 0)"/>
</clipPath>
<clipPath id="clip2_941_4811">
<rect width="556.351" height="188" fill="white" transform="translate(564.352)"/>
</clipPath>
</defs>
</svg>
