<svg width="144" height="144" viewBox="0 0 144 144" fill="none" xmlns="http://www.w3.org/2000/svg">
<g id="Icon (Stroke)" filter="url(#filter0_d_332_1480)">
<path fill-rule="evenodd" clip-rule="evenodd" d="M40 72C40 54.3269 54.3269 40 72 40C89.6731 40 104 54.3269 104 72C104 89.6731 89.6731 104 72 104C54.3269 104 40 89.6731 40 72ZM87.1479 61.2157C88.284 62.3518 88.284 64.1937 87.1479 65.3298L69.6934 82.7843C68.5573 83.9204 66.7154 83.9204 65.5793 82.7843L56.8521 74.057C55.716 72.921 55.716 71.079 56.8521 69.943C57.9881 68.8069 59.8301 68.8069 60.9661 69.943L67.6364 76.6132L83.0339 61.2157C84.1699 60.0796 86.0119 60.0796 87.1479 61.2157Z" fill="#63D67E"/>
<path d="M87.1479 65.3298C88.284 64.1937 88.284 62.3518 87.1479 61.2157C86.0119 60.0796 84.1699 60.0796 83.0339 61.2157L67.6364 76.6132L60.9661 69.943C59.8301 68.8069 57.9881 68.8069 56.8521 69.943C55.716 71.079 55.716 72.921 56.8521 74.057L65.5793 82.7843C66.7154 83.9204 68.5573 83.9204 69.6934 82.7843L87.1479 65.3298Z" fill="white"/>
</g>
<defs>
<filter id="filter0_d_332_1480" x="0" y="0" width="144" height="144" filterUnits="userSpaceOnUse" color-interpolation-filters="sRGB">
<feFlood flood-opacity="0" result="BackgroundImageFix"/>
<feColorMatrix in="SourceAlpha" type="matrix" values="0 0 0 0 0 0 0 0 0 0 0 0 0 0 0 0 0 0 127 0" result="hardAlpha"/>
<feOffset/>
<feGaussianBlur stdDeviation="20"/>
<feComposite in2="hardAlpha" operator="out"/>
<feColorMatrix type="matrix" values="0 0 0 0 0.388235 0 0 0 0 0.839216 0 0 0 0 0.494118 0 0 0 0.4 0"/>
<feBlend mode="normal" in2="BackgroundImageFix" result="effect1_dropShadow_332_1480"/>
<feBlend mode="normal" in="SourceGraphic" in2="effect1_dropShadow_332_1480" result="shape"/>
</filter>
</defs>
</svg>
